<?xml version="1.0" standalone="no"?>
<!DOCTYPE svg PUBLIC "-//W3C//DTD SVG 20010904//EN"
 "http://www.w3.org/TR/2001/REC-SVG-20010904/DTD/svg10.dtd">
<svg version="1.0" xmlns="http://www.w3.org/2000/svg"
 width="484.000000pt" height="484.000000pt" viewBox="0 0 484.000000 484.000000"
 preserveAspectRatio="xMidYMid meet">
<metadata>
</metadata>
<g transform="translate(0.000000,484.000000) scale(0.100000,-0.100000)"
fill="#000000" stroke="none">
<path d="M3564 3441 c-52 -13 -55 -18 -50 -77 3 -29 9 -66 12 -81 7 -25 10
-47 13 -91 1 -10 13 -12 49 -7 76 11 110 24 118 48 12 35 13 47 3 47 -6 0 -7
5 -4 10 3 6 -1 17 -9 26 -11 10 -15 27 -12 51 4 27 0 40 -19 59 -25 25 -46 28
-101 15z m81 -61 c0 -29 -44 -55 -79 -46 -19 5 -22 11 -18 33 6 36 19 44 62
41 30 -3 35 -7 35 -28z m25 -96 c9 -22 7 -29 -11 -45 -30 -26 -85 -25 -92 1
-10 37 3 59 37 63 17 2 37 5 44 5 7 1 17 -10 22 -24z"/>
<path d="M3769 3361 c-23 -24 -29 -38 -29 -73 0 -50 25 -81 73 -94 47 -11 101
30 67 51 -6 4 -17 1 -25 -5 -8 -6 -24 -10 -37 -8 -19 2 -24 11 -30 53 -8 59 6
81 45 71 45 -11 46 -56 1 -56 -34 0 -30 -17 6 -25 38 -8 70 2 70 23 0 24 -42
80 -65 86 -35 10 -46 7 -76 -23z"/>
<path d="M3970 3335 c-18 -21 2 -44 23 -27 10 9 19 8 35 -4 31 -21 21 -31 -33
-32 -54 0 -75 -15 -75 -52 0 -35 28 -60 68 -60 17 0 34 -4 37 -10 3 -5 12 -10
18 -10 15 0 53 152 42 170 -8 13 -67 40 -88 40 -8 0 -20 -7 -27 -15z m55 -120
c0 -15 -8 -21 -29 -23 -33 -4 -51 10 -42 33 9 25 71 16 71 -10z"/>
<path d="M3276 3249 c-14 -11 -24 -25 -21 -30 4 -5 2 -9 -3 -9 -7 0 -9 -44 -2
-60 1 -3 2 -7 2 -10 0 -3 7 -16 17 -28 24 -32 88 -41 119 -16 25 21 35 54 21
75 -8 12 -10 12 -18 -1 -5 -8 -8 -17 -5 -22 3 -4 -7 -15 -21 -24 -20 -13 -28
-14 -40 -4 -23 19 -19 26 29 54 49 28 52 53 13 81 -30 21 -60 19 -91 -6z m72
-30 c2 -11 -9 -23 -27 -32 -17 -9 -32 -11 -32 -6 -1 5 -2 15 -3 22 -6 35 55
51 62 16z"/>
<path d="M4150 3261 c0 -5 -6 -16 -12 -23 -7 -7 -22 -31 -33 -52 -17 -34 -18
-40 -4 -64 8 -15 31 -36 51 -47 34 -18 38 -18 55 -3 10 9 31 41 48 72 22 41
27 58 18 67 -8 8 -21 -3 -52 -45 -43 -58 -60 -67 -81 -41 -10 12 -8 22 9 55
11 22 18 40 15 40 -3 0 2 7 10 16 9 8 14 20 11 25 -8 12 -35 12 -35 0z"/>
<path d="M1089 3195 c-59 -39 -82 -87 -81 -175 0 -83 20 -153 45 -158 15 -3
16 3 9 45 -18 120 -2 183 65 248 45 44 89 47 122 9 12 -14 25 -36 28 -47 8
-31 6 -157 -2 -192 -4 -16 -8 -37 -10 -45 -2 -8 -4 -15 -5 -15 -1 0 -3 -12 -4
-27 -2 -15 -9 -34 -16 -43 -7 -8 -10 -15 -7 -15 7 0 -30 -101 -62 -171 -11
-24 -25 -58 -32 -76 -13 -30 -15 -31 -90 -38 -43 -4 -82 -4 -88 -1 -6 4 -18
33 -27 66 -34 123 -120 180 -284 187 -164 8 -329 -47 -450 -149 -59 -50 -140
-153 -144 -185 -1 -8 -7 -18 -12 -21 -5 -4 -10 -18 -11 -32 -1 -14 -5 -43 -8
-65 -9 -67 -11 -105 -4 -107 4 -2 9 -18 12 -36 7 -41 53 -121 86 -147 80 -64
151 -85 286 -85 114 0 213 24 330 79 78 37 225 148 255 192 8 12 33 43 55 69
62 73 73 87 86 111 6 13 16 28 20 33 5 6 19 24 31 40 20 27 24 28 79 23 41 -3
61 -1 69 8 13 16 -7 25 -55 25 -19 0 -37 4 -40 10 -3 5 8 41 24 80 17 38 28
70 25 70 -2 0 2 13 11 29 8 17 17 40 19 53 3 13 5 23 6 23 1 0 3 7 5 15 2 8 9
33 14 55 6 22 11 85 11 139 0 97 -12 158 -37 184 -7 7 -13 16 -13 20 0 4 -14
15 -31 25 -46 26 -134 22 -180 -8z m-379 -515 c36 -6 79 -16 95 -22 46 -19 90
-64 103 -105 17 -57 6 -63 -109 -63 -59 0 -99 -4 -99 -10 0 -6 36 -10 89 -10
50 0 92 -4 96 -10 9 -15 -64 -103 -111 -132 -82 -52 -158 -71 -264 -66 -129 6
-200 42 -200 101 0 25 -2 28 -15 17 -8 -7 -15 -21 -15 -32 0 -28 39 -95 59
-102 81 -29 116 -36 176 -36 169 0 293 67 393 213 l33 47 74 0 c75 0 90 -8 75
-40 -23 -50 -65 -128 -78 -142 -8 -10 -12 -18 -9 -18 10 0 -20 -34 -97 -112
-81 -81 -175 -130 -280 -149 -91 -15 -253 -6 -332 19 -67 21 -184 97 -184 118
0 8 -4 14 -9 14 -5 0 -12 11 -15 25 -4 14 -10 25 -15 25 -5 0 -7 9 -4 20 3 11
1 20 -4 20 -14 0 -4 92 16 135 5 11 16 36 25 56 8 19 42 61 75 92 87 82 170
121 301 142 96 16 149 17 230 5z"/>
<path d="M570 2480 c-112 -9 -191 -28 -221 -52 l-24 -19 40 7 c22 4 98 17 169
28 76 13 131 27 134 34 2 7 0 11 -5 11 -4 -1 -46 -5 -93 -9z"/>
<path d="M4333 3173 c-13 -8 -23 -21 -23 -27 0 -6 -16 -31 -36 -56 -23 -29
-34 -52 -32 -70 4 -30 33 -35 33 -5 0 11 7 27 15 36 8 9 22 25 30 37 8 12 22
22 31 22 14 0 25 25 29 68 2 14 -25 11 -47 -5z"/>
<path d="M3128 3130 c-26 -27 -31 -28 -44 -15 -16 16 -44 20 -44 7 0 -13 33
-55 92 -117 44 -46 60 -57 69 -48 9 9 2 22 -29 58 -33 37 -39 51 -33 68 14 37
43 32 81 -13 35 -42 57 -50 66 -25 7 17 -89 115 -112 115 -9 0 -29 -13 -46
-30z"/>
<path d="M4371 3042 c-17 -27 -31 -54 -31 -60 0 -7 -4 -12 -10 -12 -5 0 -10
-9 -10 -21 0 -17 -5 -20 -34 -18 -42 4 -53 -5 -35 -27 9 -11 23 -14 44 -11 46
8 195 67 195 78 0 19 -32 22 -66 6 -18 -9 -36 -12 -39 -7 -3 5 5 29 17 54 15
32 19 49 11 57 -7 7 -19 -4 -42 -39z"/>
<path d="M2949 3023 c-13 -21 -28 -41 -33 -45 -6 -4 -7 -8 -2 -8 4 0 1 -12 -9
-26 -9 -14 -14 -33 -10 -42 6 -14 10 -13 30 12 l23 29 57 -39 c80 -55 96 -63
111 -57 16 6 7 33 -12 33 -8 0 -14 4 -14 8 0 5 -26 25 -58 46 -59 38 -73 64
-47 86 14 11 10 40 -5 40 -5 0 -19 -17 -31 -37z"/>
<path d="M2075 3027 c-28 -9 -57 -39 -61 -62 -3 -15 -39 -111 -77 -207 -19
-48 -33 -89 -29 -92 3 -3 0 -6 -6 -6 -6 0 -9 -7 -6 -15 4 -8 1 -15 -5 -15 -6
0 -10 -3 -10 -7 1 -5 0 -11 -1 -15 -1 -5 -3 -11 -4 -15 -1 -5 -10 -26 -19 -47
-10 -22 -20 -51 -24 -65 -4 -14 -23 -67 -44 -118 -20 -50 -35 -94 -31 -97 3
-3 0 -6 -6 -6 -7 0 -12 -13 -12 -30 0 -28 2 -30 40 -30 37 0 41 3 65 48 34 63
48 86 60 94 7 5 7 8 0 8 -5 0 -2 5 8 11 9 5 17 15 17 20 0 23 118 161 185 217
15 13 35 9 35 -8 0 -5 -26 -63 -57 -128 -32 -65 -60 -125 -61 -133 -2 -8 -6
-23 -9 -34 -14 -58 14 -105 62 -105 26 0 41 9 74 45 41 45 61 50 61 17 0 -52
58 -78 111 -49 34 17 153 132 169 161 17 33 32 23 19 -12 -10 -26 -14 -41 -23
-98 -3 -16 3 -34 17 -50 41 -47 94 -23 171 79 37 49 52 75 45 82 -7 7 -21 -3
-42 -29 -18 -22 -32 -42 -32 -45 0 -3 -15 -19 -33 -35 -51 -45 -60 -22 -22 60
17 38 32 76 33 85 2 10 9 24 16 33 7 9 10 16 6 16 -5 0 0 9 10 20 10 11 15 20
11 20 -3 0 1 15 11 33 9 17 17 34 18 37 0 3 6 20 14 38 21 49 7 56 -107 57
-89 0 -101 -2 -152 -30 -67 -36 -146 -114 -184 -181 -16 -27 -42 -64 -59 -81
-17 -18 -28 -33 -24 -33 7 0 -6 -17 -54 -73 -28 -33 -51 -30 -41 6 3 12 27 64
54 115 26 50 45 92 42 92 -4 0 1 9 11 20 21 23 25 37 29 95 3 42 -23 85 -51
85 -45 0 -122 -62 -207 -167 -57 -70 -87 -93 -71 -55 4 9 22 55 40 102 18 47
42 109 54 138 11 28 18 52 15 52 -4 0 -1 6 5 13 6 8 8 17 4 20 -3 4 -1 7 5 7
7 0 11 3 10 8 0 4 2 15 5 25 4 9 10 25 14 35 3 9 5 20 5 25 -1 4 3 7 8 7 6 0
9 3 8 8 -2 4 8 36 21 71 12 35 19 67 14 71 -4 4 -21 3 -38 -3z m555 -417 c0
-11 -4 -20 -10 -20 -5 0 -10 -6 -10 -14 0 -8 -17 -36 -38 -63 -21 -26 -59 -77
-84 -113 -49 -69 -163 -173 -182 -167 -20 7 -17 43 8 100 13 30 22 58 18 61
-3 3 -1 6 5 6 6 0 18 19 27 41 19 46 111 141 166 170 19 10 50 18 68 19 25 0
32 -4 32 -20z"/>
<path d="M4503 2800 c-17 -10 -37 -29 -44 -42 -14 -27 -20 -98 -7 -98 4 0 8
-6 8 -13 0 -23 46 -59 72 -55 30 4 27 19 -8 39 -16 9 -28 22 -26 28 1 6 -2 11
-7 11 -17 0 -5 60 16 81 11 11 39 23 62 26 35 5 46 2 66 -17 26 -24 33 -68 15
-86 -6 -6 -8 -18 -4 -28 6 -16 8 -16 25 0 14 12 19 31 19 65 0 40 -5 52 -31
78 -25 26 -38 31 -77 31 -29 0 -59 -8 -79 -20z"/>
<path d="M2881 2654 c-43 -18 -131 -109 -131 -135 0 -30 15 -23 57 26 54 64
93 91 104 74 15 -24 3 -60 -65 -192 -36 -70 -72 -150 -80 -177 l-15 -50 42 0
c40 1 43 3 64 48 25 53 103 172 142 217 85 97 153 157 163 147 9 -9 -1 -37
-37 -112 -27 -55 -54 -100 -59 -100 -5 0 -7 -3 -4 -6 4 -3 -2 -24 -13 -47 -23
-52 -24 -105 -3 -136 14 -19 23 -22 55 -18 38 5 71 34 128 113 45 63 10 49
-53 -21 -60 -66 -64 -68 -75 -48 -8 17 -8 25 2 35 6 7 13 20 15 28 2 8 8 18
14 21 5 3 9 9 8 13 -1 4 20 45 45 92 26 47 48 93 50 102 2 10 4 18 5 20 2 1 4
7 5 12 1 6 4 11 5 13 12 13 4 62 -13 78 -44 40 -91 18 -191 -88 -58 -62 -85
-79 -71 -45 8 21 17 60 19 87 1 25 -36 65 -60 65 -11 -1 -34 -7 -53 -16z"/>
<path d="M3411 2659 c-31 -12 -152 -130 -148 -143 7 -21 26 -10 91 52 37 34
71 60 76 57 15 -9 12 -53 -6 -80 -9 -14 -14 -25 -10 -25 3 0 -8 -24 -25 -52
-18 -29 -32 -57 -33 -63 -1 -5 -18 -44 -38 -85 -52 -108 -52 -114 -1 -118 42
-3 43 -2 66 47 62 127 203 308 278 355 23 15 27 15 32 2 4 -9 -2 -23 -11 -32
-9 -10 -16 -20 -14 -23 1 -3 -25 -61 -59 -128 -65 -131 -72 -164 -44 -206 13
-21 25 -27 51 -27 28 0 44 10 83 49 50 51 61 53 61 17 0 -40 28 -66 70 -66 31
0 47 8 86 43 72 64 108 99 127 126 25 36 30 20 11 -34 -17 -51 -14 -106 7
-131 25 -30 76 -14 132 43 21 22 87 109 87 115 0 25 -25 8 -76 -52 -33 -38
-63 -67 -69 -66 -14 4 -10 71 5 86 11 11 50 101 50 115 0 8 5 15 12 15 6 0 9
3 6 6 -4 3 9 39 28 80 49 107 48 111 -31 119 -79 9 -147 0 -199 -27 -55 -28
-169 -144 -196 -200 -13 -26 -41 -61 -62 -79 -22 -17 -37 -33 -35 -36 6 -5
-76 -93 -86 -93 -20 0 0 54 68 183 85 165 98 214 66 246 -12 12 -28 21 -38 21
-32 0 -102 -51 -162 -117 -33 -37 -63 -65 -65 -62 -3 3 1 23 9 44 20 55 18 78
-6 109 -21 27 -47 32 -88 15z m762 -43 c3 -8 -1 -17 -9 -20 -9 -3 -13 -10 -10
-15 4 -5 1 -15 -6 -23 -7 -7 -35 -47 -63 -88 -55 -82 -205 -240 -228 -240 -8
0 -20 7 -27 15 -9 10 -9 15 -1 15 6 0 11 9 11 19 0 52 121 261 161 279 4 2 18
12 31 24 49 43 130 63 141 34z"/>
<path d="M1544 2631 c-114 -54 -182 -146 -192 -258 -7 -85 4 -127 39 -163 47
-47 104 -37 187 33 45 38 122 142 122 165 0 6 4 12 9 12 9 0 21 39 27 85 1 11
3 20 4 20 8 0 5 84 -4 103 -13 30 -46 25 -65 -10 -13 -22 -13 -35 -2 -92 l13
-67 -47 -82 c-54 -92 -101 -141 -154 -158 -31 -11 -36 -10 -53 11 -10 12 -19
32 -19 44 -1 11 -2 28 -3 36 -1 8 2 26 7 40 11 31 18 61 19 78 1 6 5 12 8 12
4 0 13 14 21 31 14 34 111 139 128 139 16 0 51 32 45 42 -9 13 -26 9 -90 -21z"/>
<path d="M4595 2556 c-77 -8 -100 -14 -100 -26 0 -11 14 -15 58 -16 110 -3
119 -60 13 -79 -32 -5 -58 -14 -59 -20 -1 -6 27 -11 65 -13 62 -3 68 -1 83 22
10 15 15 40 13 63 -3 35 -1 38 27 43 31 5 43 34 15 36 -8 1 -60 -4 -115 -10z"/>
<path d="M4502 2347 c-11 -13 -21 -132 -11 -141 2 -3 35 -8 71 -12 79 -8 92 1
97 61 1 22 3 42 3 45 2 14 -16 40 -27 40 -22 0 -26 -16 -11 -45 11 -21 12 -32
3 -46 -16 -26 -37 -5 -37 38 0 50 -16 73 -49 73 -16 0 -33 -6 -39 -13z m56
-29 c15 -15 16 -74 1 -83 -17 -11 -49 26 -49 55 0 40 23 53 48 28z"/>
<path d="M4465 2169 c-9 -13 19 -35 65 -50 46 -16 63 -34 55 -59 -5 -14 -2
-20 9 -20 9 0 16 3 17 8 0 4 2 17 3 29 2 13 5 26 9 29 12 12 -21 33 -83 53
-74 25 -67 24 -75 10z"/>
<path d="M4420 2055 c0 -8 -4 -15 -10 -15 -5 0 -10 -13 -10 -29 0 -16 -7 -34
-15 -41 -23 -19 -19 -28 26 -52 23 -13 52 -29 65 -36 30 -16 58 -3 79 39 18
34 17 80 -2 87 -9 2 -13 -7 -13 -26 0 -37 -35 -84 -48 -64 -10 14 -4 62 7 62
12 0 11 44 -1 68 -14 27 -78 33 -78 7z m51 -27 c0 -7 2 -23 3 -35 2 -13 -1
-23 -6 -23 -4 0 -8 -7 -8 -15 0 -18 -12 -19 -28 -3 -17 17 -15 48 5 70 19 21
33 23 34 6z"/>
<path d="M3037 2023 c-13 -12 -7 -23 13 -23 50 0 58 -55 12 -90 -13 -11 -33
-20 -43 -20 -17 0 -41 29 -38 47 3 20 -2 43 -10 43 -5 0 -14 -13 -19 -29 -10
-29 3 -63 32 -83 31 -22 101 0 132 40 27 36 -9 122 -52 122 -11 0 -24 -3 -27
-7z"/>
<path d="M4299 1873 c-23 -27 -29 -58 -15 -81 11 -18 35 -2 34 21 -2 43 2 47
36 47 74 0 93 -98 22 -111 -26 -5 -23 -23 4 -27 28 -5 73 25 66 44 -3 8 -1 14
5 14 6 0 8 14 5 33 -7 44 -56 87 -100 87 -23 0 -40 -8 -57 -27z"/>
<path d="M3098 1844 c-47 -46 -61 -74 -35 -74 7 0 20 8 28 18 9 9 33 30 53 46
20 16 36 35 36 43 0 26 -36 12 -82 -33z"/>
<path d="M3161 1795 c-22 -24 -41 -48 -42 -52 0 -5 -2 -16 -4 -25 -4 -23 17
-50 60 -72 l36 -20 27 30 c54 57 75 95 63 107 -9 9 -22 0 -54 -36 -45 -49 -66
-57 -87 -32 -16 19 -2 48 42 94 27 27 31 51 9 51 -5 0 -27 -20 -50 -45z"/>
<path d="M4173 1756 c-12 -13 -19 -27 -16 -30 4 -3 2 -6 -4 -6 -16 0 -8 -45 9
-48 16 -3 32 24 22 39 -8 13 21 39 45 39 35 0 34 -20 -5 -54 -51 -46 -54 -73
-9 -92 37 -15 61 -9 94 24 22 21 17 86 -9 121 -18 26 -28 31 -64 31 -32 0 -47
-6 -63 -24z m124 -84 c0 -25 -16 -42 -43 -42 -36 0 -39 20 -8 45 31 25 50 24
51 -3z"/>
<path d="M3005 1750 c-4 -6 -3 -16 3 -22 6 -6 12 -6 17 2 4 6 3 16 -3 22 -6 6
-12 6 -17 -2z"/>
<path d="M3327 1712 c-10 -10 -17 -22 -17 -26 0 -4 -9 -19 -20 -34 -28 -38
-34 -72 -12 -72 19 0 96 126 86 141 -8 14 -19 11 -37 -9z"/>
<path d="M3390 1677 c-7 -12 -13 -23 -12 -25 1 -1 -14 -33 -33 -72 -36 -71
-45 -115 -22 -108 17 6 91 153 102 205 5 22 -21 21 -35 0z"/>
<path d="M4086 1663 c4 -16 11 -33 16 -40 18 -23 19 -65 2 -84 -16 -18 -12
-39 9 -39 19 0 58 53 52 69 -4 9 -7 21 -8 26 -1 6 -4 12 -7 15 -3 3 -13 22
-22 43 -21 45 -52 52 -42 10z"/>
<path d="M3455 1630 c-9 -10 -15 -26 -11 -35 5 -14 9 -13 34 5 33 24 70 20 98
-11 26 -29 14 -103 -23 -141 -24 -24 -35 -28 -58 -22 -15 4 -35 19 -44 35 -20
35 -38 38 -37 5 3 -56 75 -89 141 -64 29 10 38 21 55 65 11 30 20 62 20 73 0
33 -30 85 -58 98 -40 19 -96 15 -117 -8z"/>
<path d="M3844 1620 c-12 -5 -25 -13 -28 -19 -4 -6 -20 -8 -36 -4 -33 6 -37
-2 -15 -31 8 -11 15 -33 15 -48 0 -26 3 -28 26 -22 17 4 29 2 34 -7 9 -13 -4
-48 -24 -62 -8 -6 -7 -10 2 -14 6 -2 12 -9 12 -15 0 -16 28 -38 49 -38 25 0
61 33 61 56 0 8 -5 24 -11 35 -8 16 -7 29 5 54 21 43 20 68 -1 93 -21 25 -60
35 -89 22z m61 -50 c17 -18 17 -21 1 -45 -9 -14 -18 -25 -21 -25 -8 0 -55 51
-55 60 0 10 29 29 46 30 6 0 19 -9 29 -20z m-7 -144 c2 -10 -1 -23 -8 -30 -17
-17 -43 21 -27 40 15 17 31 12 35 -10z"/>
<path d="M3235 1541 c-3 -5 -1 -12 5 -16 5 -3 10 1 10 9 0 18 -6 21 -15 7z"/>
</g>
</svg>
