<svg version="1.1" id="Layer_1" xmlns="http://www.w3.org/2000/svg" xmlns:xlink="http://www.w3.org/1999/xlink" x="0px" y="0px"
	 width="100%" viewBox="0 0 192 192" enable-background="new 0 0 192 192" xml:space="preserve">
<path fill="#9D5937" opacity="1.000000" stroke="none" 
	d="
M0.999999,118.000000 
	C1.000000,104.312439 1.000000,90.624878 1.378324,76.609467 
	C2.474740,74.859917 3.530596,73.511909 3.859303,72.005257 
	C7.650127,54.629776 16.807272,40.292400 29.251734,28.018225 
	C41.470406,15.966748 55.762562,7.318445 72.757477,3.565672 
	C73.968124,3.298338 74.925079,1.882049 76.000000,0.999999 
	C89.687561,1.000000 103.375122,1.000000 117.390518,1.378290 
	C122.416145,3.476318 127.171822,5.053874 131.802338,6.938870 
	C161.911911,19.195908 181.809204,40.595657 190.242401,72.286163 
	C190.610825,73.670677 192.056244,74.768593 193.000000,76.000000 
	C193.000000,89.687561 193.000000,103.375122 192.621674,117.390533 
	C191.525253,119.140076 190.467422,120.488159 190.141006,121.994720 
	C186.374451,139.378525 177.187241,153.700912 164.758453,165.971710 
	C152.545929,178.029007 138.251968,186.697372 121.242477,190.434525 
	C120.032188,190.700424 119.074921,192.117950 118.000000,193.000000 
	C104.312439,193.000000 90.624878,193.000000 76.609467,192.621674 
	C74.859917,191.525253 73.511787,190.466248 72.005280,190.141144 
	C54.624031,186.390274 40.301048,177.204987 28.044708,164.782349 
	C15.991534,152.565613 7.300639,138.264328 3.565451,121.242462 
	C3.299892,120.032272 1.882049,119.074921 0.999999,118.000000 
M161.673431,95.022163 
	C157.569687,92.240295 153.465958,89.458435 149.574417,86.820419 
	C152.732681,85.639183 156.587479,84.601456 160.049423,82.806190 
	C165.014526,80.231407 168.524429,76.336021 168.403336,70.216942 
	C168.295395,64.762924 165.318588,61.239983 160.672150,58.915417 
	C159.046890,58.102322 157.372818,57.219193 155.619858,56.854641 
	C135.751038,52.722683 116.930763,56.087040 99.007545,65.163376 
	C97.312866,66.021561 96.082474,67.796600 94.636528,69.145981 
	C94.969223,69.764763 95.301918,70.383553 95.634605,71.002342 
	C99.009300,69.806641 102.380234,68.600182 105.759392,67.417213 
	C116.796432,63.553371 128.083694,61.684250 139.542572,64.846130 
	C142.126709,65.559181 145.633591,68.375435 145.926605,70.592186 
	C146.309540,73.489128 144.682983,77.488190 142.556046,79.701370 
	C138.480606,83.942055 132.633041,84.462364 126.011375,84.889854 
	C128.039215,80.430534 129.740646,76.680519 131.449646,72.933952 
	C132.483170,70.668175 132.828934,68.838860 129.524231,68.178024 
	C118.942406,66.061989 107.932434,71.184204 103.322121,81.051941 
	C100.229843,87.670517 97.881615,94.634323 95.125793,101.413307 
	C93.160271,106.248260 90.617920,110.416519 84.397835,110.186287 
	C83.641792,110.158295 82.849777,111.101891 81.656395,111.861176 
	C82.775528,113.125160 83.435188,114.401276 84.479561,114.966316 
	C93.382713,119.783195 102.741058,120.495491 112.507683,118.040649 
	C114.853180,117.451103 117.576965,117.089417 119.846016,117.687714 
	C131.394821,120.732933 142.846100,121.721306 154.060379,116.702324 
	C162.859680,112.764175 166.063385,103.966019 161.673431,95.022163 
M83.334457,67.863014 
	C84.554001,59.231148 82.737190,57.032158 73.994698,56.774323 
	C62.141178,56.424736 51.912861,60.867847 42.573048,67.720428 
	C41.399006,68.581818 40.641441,70.010849 39.690910,71.176872 
	C39.986774,71.708817 40.282639,72.240753 40.578503,72.772690 
	C43.425861,71.964302 46.244404,71.024750 49.130074,70.390762 
	C51.277634,69.918945 53.512142,69.842850 55.707920,69.590515 
	C55.637547,71.841736 56.045860,74.239212 55.410755,76.317886 
	C53.128216,83.788521 50.356419,91.109344 48.057487,98.575455 
	C47.112190,101.645439 45.567364,103.484818 42.651184,105.071693 
	C34.451889,109.533424 27.122757,115.052063 25.887678,125.357521 
	C24.864084,133.898392 28.959061,138.617310 37.582924,139.043304 
	C50.232529,139.668167 59.887367,134.328903 64.946434,121.435547 
	C71.736595,104.130379 77.170616,86.293091 83.334457,67.863014 
z"/>
<path fill="#000000" opacity="1.000000" stroke="none" 
	d="
M193.000000,75.531342 
	C192.056244,74.768593 190.610825,73.670677 190.242401,72.286163 
	C181.809204,40.595657 161.911911,19.195908 131.802338,6.938870 
	C127.171822,5.053874 122.416145,3.476318 117.859177,1.378290 
	C142.926865,1.000000 167.853729,1.000000 193.000000,1.000000 
	C193.000000,25.687128 193.000000,50.374905 193.000000,75.531342 
z"/>
<path fill="#000000" opacity="1.000000" stroke="none" 
	d="
M75.531342,0.999999 
	C74.925079,1.882049 73.968124,3.298338 72.757477,3.565672 
	C55.762562,7.318445 41.470406,15.966748 29.251734,28.018225 
	C16.807272,40.292400 7.650127,54.629776 3.859303,72.005257 
	C3.530596,73.511909 2.474740,74.859917 1.378324,76.140808 
	C1.000000,51.073132 1.000000,26.146261 1.000000,1.000000 
	C25.687128,1.000000 50.374905,1.000000 75.531342,0.999999 
z"/>
<path fill="#000000" opacity="1.000000" stroke="none" 
	d="
M0.999999,118.468658 
	C1.882049,119.074921 3.299892,120.032272 3.565451,121.242462 
	C7.300639,138.264328 15.991534,152.565613 28.044708,164.782349 
	C40.301048,177.204987 54.624031,186.390274 72.005280,190.141144 
	C73.511787,190.466248 74.859917,191.525253 76.140808,192.621674 
	C51.073124,193.000000 26.146250,193.000000 1.000000,193.000000 
	C1.000000,168.312866 1.000000,143.625092 0.999999,118.468658 
z"/>
<path fill="#000000" opacity="1.000000" stroke="none" 
	d="
M118.468658,193.000000 
	C119.074921,192.117950 120.032188,190.700424 121.242477,190.434525 
	C138.251968,186.697372 152.545929,178.029007 164.758453,165.971710 
	C177.187241,153.700912 186.374451,139.378525 190.141006,121.994720 
	C190.467422,120.488159 191.525253,119.140076 192.621674,117.859192 
	C193.000000,142.926865 193.000000,167.853745 193.000000,193.000000 
	C168.312866,193.000000 143.625092,193.000000 118.468658,193.000000 
z"/>
<path fill="#FDFBFB" opacity="1.000000" stroke="none" 
	d="
M161.873245,95.345978 
	C166.063385,103.966019 162.859680,112.764175 154.060379,116.702324 
	C142.846100,121.721306 131.394821,120.732933 119.846016,117.687714 
	C117.576965,117.089417 114.853180,117.451103 112.507683,118.040649 
	C102.741058,120.495491 93.382713,119.783195 84.479561,114.966316 
	C83.435188,114.401276 82.775528,113.125160 81.656395,111.861176 
	C82.849777,111.101891 83.641792,110.158295 84.397835,110.186287 
	C90.617920,110.416519 93.160271,106.248260 95.125793,101.413307 
	C97.881615,94.634323 100.229843,87.670517 103.322121,81.051941 
	C107.932434,71.184204 118.942406,66.061989 129.524231,68.178024 
	C132.828934,68.838860 132.483170,70.668175 131.449646,72.933952 
	C129.740646,76.680519 128.039215,80.430534 126.011375,84.889854 
	C132.633041,84.462364 138.480606,83.942055 142.556046,79.701370 
	C144.682983,77.488190 146.309540,73.489128 145.926605,70.592186 
	C145.633591,68.375435 142.126709,65.559181 139.542572,64.846130 
	C128.083694,61.684250 116.796432,63.553371 105.759392,67.417213 
	C102.380234,68.600182 99.009300,69.806641 95.634605,71.002342 
	C95.301918,70.383553 94.969223,69.764763 94.636528,69.145981 
	C96.082474,67.796600 97.312866,66.021561 99.007545,65.163376 
	C116.930763,56.087040 135.751038,52.722683 155.619858,56.854641 
	C157.372818,57.219193 159.046890,58.102322 160.672150,58.915417 
	C165.318588,61.239983 168.295395,64.762924 168.403336,70.216942 
	C168.524429,76.336021 165.014526,80.231407 160.049423,82.806190 
	C156.587479,84.601456 152.732681,85.639183 149.574417,86.820419 
	C153.465958,89.458435 157.569687,92.240295 161.873245,95.345978 
M119.326447,108.159210 
	C119.128754,109.279396 118.931068,110.399574 118.570236,112.444145 
	C123.075874,111.733528 127.190117,111.443146 131.097672,110.387619 
	C137.594147,108.632744 141.310135,103.486801 140.864105,97.703651 
	C140.520096,93.243362 135.621445,89.731331 129.089523,88.922287 
	C126.326385,88.580055 124.804993,89.204643 124.065170,92.095642 
	C122.753113,97.222832 121.110107,102.265327 119.326447,108.159210 
z"/>
<path fill="#FDFCFB" opacity="1.000000" stroke="none" 
	d="
M83.260643,68.273628 
	C77.170616,86.293091 71.736595,104.130379 64.946434,121.435547 
	C59.887367,134.328903 50.232529,139.668167 37.582924,139.043304 
	C28.959061,138.617310 24.864084,133.898392 25.887678,125.357521 
	C27.122757,115.052063 34.451889,109.533424 42.651184,105.071693 
	C45.567364,103.484818 47.112190,101.645439 48.057487,98.575455 
	C50.356419,91.109344 53.128216,83.788521 55.410755,76.317886 
	C56.045860,74.239212 55.637547,71.841736 55.707924,69.590515 
	C53.512142,69.842850 51.277634,69.918945 49.130074,70.390762 
	C46.244404,71.024750 43.425861,71.964302 40.578503,72.772690 
	C40.282639,72.240753 39.986774,71.708817 39.690910,71.176872 
	C40.641441,70.010849 41.399006,68.581818 42.573048,67.720428 
	C51.912861,60.867847 62.141178,56.424736 73.994698,56.774323 
	C82.737190,57.032158 84.554001,59.231148 83.260643,68.273628 
M34.601978,132.831787 
	C35.204659,132.722961 36.233944,132.777466 36.347347,132.481293 
	C38.886028,125.851196 41.323925,119.182518 44.238430,111.280594 
	C36.159412,115.492744 32.130447,125.000038 34.601978,132.831787 
z"/>
<path fill="#A05D3C" opacity="1.000000" stroke="none" 
	d="
M119.466011,107.751236 
	C121.110107,102.265327 122.753113,97.222832 124.065170,92.095642 
	C124.804993,89.204643 126.326385,88.580055 129.089523,88.922287 
	C135.621445,89.731331 140.520096,93.243362 140.864105,97.703651 
	C141.310135,103.486801 137.594147,108.632744 131.097672,110.387619 
	C127.190117,111.443146 123.075874,111.733528 118.570236,112.444145 
	C118.931068,110.399574 119.128754,109.279396 119.466011,107.751236 
z"/>
<path fill="#A56646" opacity="1.000000" stroke="none" 
	d="
M34.342876,132.534988 
	C32.130447,125.000038 36.159412,115.492744 44.238430,111.280594 
	C41.323925,119.182518 38.886028,125.851196 36.347347,132.481293 
	C36.233944,132.777466 35.204659,132.722961 34.342876,132.534988 
z"/>
</svg>